<?xml version="1.0" encoding="UTF-8" standalone="no"?>
<svg xmlns="http://www.w3.org/2000/svg" width="135" height="125" version="1.0">
  <path stroke="#000" d="M78.615122 31.156829c-2.339672-6.189647-1.192391-10.054659 4.545686-10.85914 4.354847-2.867841 7.552504-10.364445 13.131983-8.333758 4.100779 2.034992 1.750668 5.503519 0 8.838834 4.725289 11.796363-1.871264 12.270872-6.81853 14.394674-.495342 12.102364 7.33091 7.561541 12.374369 8.586297-2.182693-2.958339-2.950284-4.784595-1.76777-5.050763.70908-1.395401 1.36494-2.84403 4.04061-2.272843-1.62585-5.272969-1.98902-8.778199-.25254-9.343911 2.62223-.698769 3.11966 2.852054 3.78807 6.060915 3.03046-4.820711 6.06092-16.721615 9.09138-14.394674 3.76681 1.864096-.5496 8.347173-1.01016 12.626907 3.45136-2.673365 6.90271-10.972564 10.35407-7.576144 3.96557 3.872251-4.67565 7.744503-7.07107 11.616754 4.14251.493264 12.11534-1.567021 10.85914 2.525382-.27826 4.386681-11.78511 2.357023-17.67767 3.535534-4.98856 9.291962-10.93369 16.322943-23.233505 8.333758-2.272107 27.075803-18.235092 24.20281-30.557114 29.294424 2.656143 4.186651 4.915576 8.342785-1.010153 11.869292 2.950449 1.851483 9.092882 3.348302 6.565992 5.808378-3.030458 3.792015-6.060915-.774535-9.091373-1.767767-.230386 4.652019.434631 10.199452-4.293149 10.354072-4.396884-.44301-1.050031-6.417258-1.26269-9.848996-1.757127 3.135917-4.478237 4.343867-7.576144 4.798226-2.974399-3.139199 1.919906-5.294808 3.788072-7.828684-1.713721-1.756467-6.195544-2.474896-3.030458-6.060915 1.131785-2.204532 8.128564 5.374278 10.101526 1.515229-.626156-4.299376-3.595279-5.787191-7.576145-6.060915-5.392498 1.913345-9.348845 3.645347-9.800036 8.584987-.365983 4.00678-2.262245 12.931778 9.29496 17.678988 10.815022 2.05805 18.378882-2.85068 24.496199-10.859149 9.12573-11.989586 18.486525-19.042816 28.284272-16.920055 5.274026 1.773508 9.745696 4.693231 10.354056 13.131983-1.90608 8.033061-4.9311 9.570011-8.838828 9.596451-6.569189-.15024-4.802041-3.635025-5.050762-6.313455 2.75364 1.898902 4.701747-.229861 6.81853-1.515229-2.372533.352229-2.894515-1.146094-3.282996-2.77792.481367-1.582802 1.625759-2.060561 3.535526-1.26269-1.515224-2.699402-3.030452-3.702282-4.545679-3.788072-.732913 1.713229-1.627121 3.232903-3.535534 3.535533-1.620496.042176-2.612559-1.172515-3.282996-3.030457-1.78301 1.287216-3.191731 2.799006-3.788072 4.798224.970376 1.448709 2.526455 2.524698 1.010153 5.555839-1.431049.614228-2.862099.974161-4.293148-.757614-1.302955 1.797043-2.670361 3.551121-3.282996 5.808381 1.610511 1.42867 2.931402 2.9194 1.262691 5.05076-2.751461 1.34927-3.654521-.07405-4.545687-1.51522-1.572242 2.4023-3.276024 4.58536-5.555839 5.80837 1.368916 2.23994.979572 3.74727-.505076 4.79823-1.875102.29939-3.842779 1.03852-4.798225-3.03046-2.69374 1.29894-5.38748 2.61874-8.08122 2.52538.688897 3.27475-.607585 4.36558-2.272843 5.05076-3.076677-.11693-3.515053-2.06038-3.535534-4.29314h-7.071068c-.717631 1.49884-.226617 3.77467-4.04061 3.28299-3.272584-.54793-1.750006-2.94015-2.272844-4.54568-14.707191-7.61607-17.54399-20.658611-15.657364-35.860426 3.069125-8.695263 14.888959-22.999955 9.091373-26.011428-1.70367.789663-3.662203 1.451894-6.313453 1.767767.02919 2.660407 2.960646 6.191495-1.262691 7.576144-2.534717.9099-2.037355-4.67751-3.030458-7.071068-2.333754 4.610839-2.53138 15.202835-7.071068 13.637059-3.7114666-.076605 1.175492-8.751636 1.767767-13.131983-3.923866 1.54575-9.6191133 7.027901-11.6167537 4.293149-2.9304493-4.781013 5.8657775-6.404843 8.8388347-9.59645-2.200994-2.704335-8.8903389-5.588204-5.808377-8.08122 1.1492543-2.052 8.417935 2.525378 12.626907 3.788072 9.153227-8.102839 16.120106-5.957175 21.465741 3.788072 5.099513-6.63685 12.260021-9.151709 20.203051-10.101525-5.734828-4.89612-5.608711-10.301887-6.060915-15.657365-2.862099-3.451354-11.109094-6.364219-8.586297-10.354063 1.331832-3.397251 7.071068 2.020305 10.606602 3.030457-1.114329-4.227086-6.874039-9.2620659-3.030458-12.6269072 3.282996-3.2126588 6.565992 7.2394272 9.848988 10.8591402 2.188664-4.124789.81785-12.6602838 6.476705-11.9279404 4.57256 1.4118545-.336717 9.5964494-.505076 14.3946744 2.860288-2.00063 5.786944-5.594073 8.423044-2.214196 1.787325 1.716749-5.050763 5.050763-7.576144 7.576144.287258 4.672513-4.041425 4.421355-7.071068 5.55584 1.446012 11.665773 12.842842 4.786658 15.152289 1.010152z"/>
</svg>